<svg width="767" height="622" viewBox="0 0 767 622" fill="none" xmlns="http://www.w3.org/2000/svg">
<path id="Union" fill-rule="evenodd" clip-rule="evenodd" d="M45.8241 594.097C43.1161 601.926 47.2675 610.468 55.0967 613.176C62.9259 615.884 71.4679 611.732 74.176 603.903L90.8355 555.739L654.074 561.223L670.758 611.707C673.357 619.573 681.841 623.842 689.707 621.242C697.573 618.643 701.842 610.159 699.242 602.293L685.771 561.531L751.849 562.174C760.133 562.255 766.914 555.605 766.994 547.321C767.075 539.037 760.425 532.257 752.141 532.176L675.825 531.433L643.193 432.694L705.853 433.306C714.137 433.387 720.918 426.737 720.999 418.453C721.079 410.169 714.43 403.388 706.146 403.308L633.247 402.596L603.268 311.885L663.857 312.476C672.141 312.557 678.922 305.907 679.003 297.623C679.083 289.34 672.434 282.559 664.15 282.478L593.321 281.786L571.993 217.248L628.86 217.803C637.144 217.884 643.925 211.234 644.006 202.95C644.087 194.666 637.437 187.885 629.153 187.804L562.046 187.149L547.706 143.757L603.863 144.305C612.146 144.386 618.927 137.736 619.008 129.452C619.089 121.168 612.439 114.387 604.155 114.306L537.759 113.658L528.414 85.3828L583.864 85.9241C592.148 86.005 598.929 79.3551 599.01 71.0713C599.091 62.7874 592.441 56.0064 584.157 55.9255L518.467 55.2842L506.242 18.2932C503.643 10.4274 495.159 6.15813 487.293 8.75764C479.427 11.3571 475.158 19.841 477.758 27.7068L486.769 54.9747L264.795 52.8076L276.176 19.9033C278.884 12.0742 274.732 3.5321 266.903 0.824074C259.074 -1.88396 250.532 2.26757 247.824 10.0967L233.158 52.4988L182.146 52.0007C173.863 51.9199 167.082 58.5697 167.001 66.8536C166.92 75.1375 173.57 81.9184 181.854 81.9993L222.815 82.3992L213.1 110.488L163.146 110.001C154.863 109.92 148.082 116.57 148.001 124.854C147.92 133.137 154.57 139.918 162.854 139.999L202.757 140.389L187.847 183.496L137.146 183.001C128.863 182.92 122.082 189.57 122.001 197.854C121.92 206.137 128.57 212.918 136.854 212.999L177.505 213.396L155.328 277.51L103.146 277.001C94.8626 276.92 88.0816 283.57 88.0007 291.854C87.9199 300.137 94.5697 306.918 102.854 306.999L144.986 307.411L113.816 397.525L60.1465 397.001C51.8626 396.92 45.0816 403.57 45.0007 411.854C44.9199 420.137 51.5697 426.918 59.8536 426.999L103.474 427.425L69.5405 525.53L15.1461 525.001C6.86217 524.92 0.0813843 531.57 0.000734627 539.854C-0.0799151 548.138 6.57012 554.919 14.854 554.999L59.1982 555.431L45.8241 594.097ZM135.111 427.734L101.178 525.838L644.127 531.124L611.495 432.385L135.111 427.734ZM601.548 402.286L571.57 311.575L176.623 307.72L145.454 397.834L601.548 402.286ZM254.452 82.7081L244.737 110.797L506.06 113.349L496.716 85.0733L254.452 82.7081ZM234.394 140.698L516.007 143.447L530.348 186.84L219.484 183.805L234.394 140.698ZM209.142 213.705L186.965 277.819L561.623 281.477L540.295 216.938L209.142 213.705Z" fill="#7CE98B"/>
</svg>
